<svg xmlns="http://www.w3.org/2000/svg" viewBox="0 0 72 72" fill="none">
  <rect width="72" height="72" rx="12" fill="#0f172a"/>
  <defs>
    <linearGradient id="stackGrad1" x1="0%" y1="0%" x2="100%" y2="100%">
      <stop offset="0%" style="stop-color:#5b7596;stop-opacity:1" />
      <stop offset="100%" style="stop-color:#3d5a80;stop-opacity:1" />
    </linearGradient>
    <linearGradient id="stackGrad2" x1="0%" y1="0%" x2="100%" y2="100%">
      <stop offset="0%" style="stop-color:#4a6890;stop-opacity:1" />
      <stop offset="100%" style="stop-color:#354f6e;stop-opacity:1" />
    </linearGradient>
    <linearGradient id="stackGrad3" x1="0%" y1="0%" x2="100%" y2="100%">
      <stop offset="0%" style="stop-color:#3d5a80;stop-opacity:1" />
      <stop offset="100%" style="stop-color:#2c4a6e;stop-opacity:1" />
    </linearGradient>
  </defs>
  
  <g transform="translate(12, 44)">
    <path d="M0 6 L24 0 L48 6 L24 12 Z" fill="url(#stackGrad3)"/>
    <path d="M0 6 L0 10 L24 16 L24 12 Z" fill="#2c4a6e"/>
    <path d="M24 12 L24 16 L48 10 L48 6 Z" fill="#354f6e"/>
  </g>
  
  <g transform="translate(12, 30)">
    <path d="M0 6 L24 0 L48 6 L24 12 Z" fill="url(#stackGrad2)"/>
    <path d="M0 6 L0 10 L24 16 L24 12 Z" fill="#354f6e"/>
    <path d="M24 12 L24 16 L48 10 L48 6 Z" fill="#4a6890"/>
  </g>
  
  <g transform="translate(12, 14)">
    <path d="M0 6 L24 0 L48 6 L24 12 Z" fill="url(#stackGrad1)"/>
    <path d="M0 6 L0 14 L24 20 L24 12 Z" fill="#3d5a80"/>
    <path d="M24 12 L24 20 L48 14 L48 6 Z" fill="#5b7596"/>
  </g>
</svg>
