<svg xmlns="http://www.w3.org/2000/svg" viewBox="0 0 192 192" fill="none">
  <rect width="192" height="192" rx="24" fill="#0f172a"/>
  <defs>
    <linearGradient id="stackGrad1" x1="0%" y1="0%" x2="100%" y2="100%">
      <stop offset="0%" style="stop-color:#5b7596;stop-opacity:1" />
      <stop offset="100%" style="stop-color:#3d5a80;stop-opacity:1" />
    </linearGradient>
    <linearGradient id="stackGrad2" x1="0%" y1="0%" x2="100%" y2="100%">
      <stop offset="0%" style="stop-color:#4a6890;stop-opacity:1" />
      <stop offset="100%" style="stop-color:#354f6e;stop-opacity:1" />
    </linearGradient>
    <linearGradient id="stackGrad3" x1="0%" y1="0%" x2="100%" y2="100%">
      <stop offset="0%" style="stop-color:#3d5a80;stop-opacity:1" />
      <stop offset="100%" style="stop-color:#2c4a6e;stop-opacity:1" />
    </linearGradient>
  </defs>
  
  <g transform="translate(32, 115)">
    <path d="M0 16 L64 0 L128 16 L64 32 Z" fill="url(#stackGrad3)"/>
    <path d="M0 16 L0 27 L64 43 L64 32 Z" fill="#2c4a6e"/>
    <path d="M64 32 L64 43 L128 27 L128 16 Z" fill="#354f6e"/>
  </g>
  
  <g transform="translate(32, 78)">
    <path d="M0 16 L64 0 L128 16 L64 32 Z" fill="url(#stackGrad2)"/>
    <path d="M0 16 L0 27 L64 43 L64 32 Z" fill="#354f6e"/>
    <path d="M64 32 L64 43 L128 27 L128 16 Z" fill="#4a6890"/>
  </g>
  
  <g transform="translate(32, 36)">
    <path d="M0 16 L64 0 L128 16 L64 32 Z" fill="url(#stackGrad1)"/>
    <path d="M0 16 L0 38 L64 54 L64 32 Z" fill="#3d5a80"/>
    <path d="M64 32 L64 54 L128 38 L128 16 Z" fill="#5b7596"/>
  </g>
</svg>
