<svg xmlns="http://www.w3.org/2000/svg" viewBox="0 0 180 180" fill="none">
  <rect width="180" height="180" rx="40" fill="#0f172a"/>
  <defs>
    <linearGradient id="stackGrad1" x1="0%" y1="0%" x2="100%" y2="100%">
      <stop offset="0%" style="stop-color:#5b7596;stop-opacity:1" />
      <stop offset="100%" style="stop-color:#3d5a80;stop-opacity:1" />
    </linearGradient>
    <linearGradient id="stackGrad2" x1="0%" y1="0%" x2="100%" y2="100%">
      <stop offset="0%" style="stop-color:#4a6890;stop-opacity:1" />
      <stop offset="100%" style="stop-color:#354f6e;stop-opacity:1" />
    </linearGradient>
    <linearGradient id="stackGrad3" x1="0%" y1="0%" x2="100%" y2="100%">
      <stop offset="0%" style="stop-color:#3d5a80;stop-opacity:1" />
      <stop offset="100%" style="stop-color:#2c4a6e;stop-opacity:1" />
    </linearGradient>
  </defs>
  
  <!-- Bottom layer -->
  <g transform="translate(30, 110)">
    <path d="M0 15 L60 0 L120 15 L60 30 Z" fill="url(#stackGrad3)"/>
    <path d="M0 15 L0 25 L60 40 L60 30 Z" fill="#2c4a6e"/>
    <path d="M60 30 L60 40 L120 25 L120 15 Z" fill="#354f6e"/>
  </g>
  
  <!-- Middle layer -->
  <g transform="translate(30, 75)">
    <path d="M0 15 L60 0 L120 15 L60 30 Z" fill="url(#stackGrad2)"/>
    <path d="M0 15 L0 25 L60 40 L60 30 Z" fill="#354f6e"/>
    <path d="M60 30 L60 40 L120 25 L120 15 Z" fill="#4a6890"/>
  </g>
  
  <!-- Top layer -->
  <g transform="translate(30, 35)">
    <path d="M0 15 L60 0 L120 15 L60 30 Z" fill="url(#stackGrad1)"/>
    <path d="M0 15 L0 35 L60 50 L60 30 Z" fill="#3d5a80"/>
    <path d="M60 30 L60 50 L120 35 L120 15 Z" fill="#5b7596"/>
  </g>
</svg>
