<svg xmlns="http://www.w3.org/2000/svg" viewBox="0 0 64 64" fill="none">
  <defs>
    <linearGradient id="stackGrad1" x1="0%" y1="0%" x2="100%" y2="100%">
      <stop offset="0%" style="stop-color:#5b7596;stop-opacity:1" />
      <stop offset="100%" style="stop-color:#3d5a80;stop-opacity:1" />
    </linearGradient>
    <linearGradient id="stackGrad2" x1="0%" y1="0%" x2="100%" y2="100%">
      <stop offset="0%" style="stop-color:#4a6890;stop-opacity:1" />
      <stop offset="100%" style="stop-color:#354f6e;stop-opacity:1" />
    </linearGradient>
    <linearGradient id="stackGrad3" x1="0%" y1="0%" x2="100%" y2="100%">
      <stop offset="0%" style="stop-color:#3d5a80;stop-opacity:1" />
      <stop offset="100%" style="stop-color:#2c4a6e;stop-opacity:1" />
    </linearGradient>
  </defs>
  
  <!-- Bottom layer -->
  <g transform="translate(6, 42)">
    <path d="M0 6 L26 0 L52 6 L26 12 Z" fill="url(#stackGrad3)"/>
    <path d="M0 6 L0 10 L26 16 L26 12 Z" fill="#2c4a6e"/>
    <path d="M26 12 L26 16 L52 10 L52 6 Z" fill="#354f6e"/>
  </g>
  
  <!-- Middle layer -->
  <g transform="translate(6, 28)">
    <path d="M0 6 L26 0 L52 6 L26 12 Z" fill="url(#stackGrad2)"/>
    <path d="M0 6 L0 10 L26 16 L26 12 Z" fill="#354f6e"/>
    <path d="M26 12 L26 16 L52 10 L52 6 Z" fill="#4a6890"/>
  </g>
  
  <!-- Top layer -->
  <g transform="translate(6, 10)">
    <path d="M0 6 L26 0 L52 6 L26 12 Z" fill="url(#stackGrad1)"/>
    <path d="M0 6 L0 14 L26 20 L26 12 Z" fill="#3d5a80"/>
    <path d="M26 12 L26 20 L52 14 L52 6 Z" fill="#5b7596"/>
  </g>
</svg>
