<svg version="1.1" xmlns="http://www.w3.org/2000/svg" viewBox="0 0 1536 1024">
<path d="M0 0 C0.79599609 -0.020625 1.59199219 -0.04125 2.41210938 -0.0625 C7.90616359 -0.09774654 12.58134061 0.80911734 17.83569336 2.3671875 C21.36858971 3.37269346 24.9291356 4.19105538 28.515625 4.9765625 C29.19947266 5.12703033 29.88332031 5.27749817 30.58789062 5.43252563 C32.03261445 5.74945211 33.47753633 6.06547688 34.92263794 6.38067627 C38.89135475 7.24687953 42.85786755 8.12303726 46.82421875 9 C48.06340309 9.27392075 48.06340309 9.27392075 49.32762146 9.55337524 C58.56540487 11.60147787 67.78283073 13.73639239 77 15.875 C93.51007143 19.70215255 110.04264325 23.41488732 126.59521484 27.05419922 C130.66814957 27.95052351 134.74058679 28.84904786 138.8125 29.75 C139.53260254 29.90929993 140.25270508 30.06859985 140.99462891 30.23272705 C157.72571163 33.93995491 174.4219104 37.79939247 191.12102127 41.64745331 C210.07412527 46.01480002 229.03906974 50.31628018 248.0534668 54.40991211 C255.75154746 56.07222113 263.41004356 57.82936721 271.04324341 59.7689209 C275.64549988 60.93634761 280.25888367 62.04018849 284.88671875 63.1015625 C286.80581055 63.54242188 286.80581055 63.54242188 288.76367188 63.9921875 C290.71614346 64.43857959 292.6686329 64.88490129 294.62182617 65.328125 C296.56510802 65.76985569 298.50718202 66.2168895 300.44921875 66.6640625 C301.57803467 66.9213916 302.70685059 67.1787207 303.86987305 67.44384766 C308.9860509 68.78834581 312.06214575 69.65102617 314.9375 74.25 C315.32518005 76.41679382 315.32518005 76.41679382 315.34155273 78.78393555 C315.35423691 79.67553879 315.36692108 80.56714203 315.37998962 81.48576355 C315.37558617 82.92173637 315.37558617 82.92173637 315.37109375 84.38671875 C315.3763356 85.38073196 315.38157745 86.37474518 315.38697815 87.39888 C315.39339926 89.5028083 315.39206022 91.6067725 315.38354492 93.71069336 C315.37507626 96.9087036 315.40372888 100.10490245 315.43554688 103.30273438 C315.4371602 105.35156197 315.43657886 107.4003927 315.43359375 109.44921875 C315.44482773 110.39641281 315.45606171 111.34360687 315.46763611 112.31950378 C315.40188932 118.67880312 314.33150605 123.79763684 310.9375 129.25 C308.93066406 131.17773438 308.93066406 131.17773438 306.703125 132.34375 C305.38344727 133.04564453 305.38344727 133.04564453 304.03710938 133.76171875 C303.01423828 134.25285156 301.99136719 134.74398437 300.9375 135.25 C300.0559021 135.67563232 300.0559021 135.67563232 299.15649414 136.10986328 C294.36993457 138.40548961 289.53341118 140.58327128 284.6875 142.75 C283.26147839 143.39399928 281.83569581 144.03852813 280.41015625 144.68359375 C273.91054019 147.61714467 267.39287202 150.49575802 260.828125 153.28125 C255.46783415 155.56406928 250.1784614 157.97519063 244.90811157 160.45623779 C236.50602801 164.40627246 228.03119302 168.19547742 219.5625 172 C218.68122437 172.39628601 217.79994873 172.79257202 216.89196777 173.2008667 C205.72343062 178.22244408 194.54363773 183.21535682 183.32666016 188.12792969 C174.18147084 192.133988 165.05913513 196.19068654 155.9375 200.25 C144.82261169 205.19559438 133.70131731 210.12542031 122.56030273 215.01196289 C116.28283389 217.76864211 110.01578293 220.54798097 103.75390625 223.33984375 C102.95000458 223.69805206 102.14610291 224.05626038 101.31784058 224.42532349 C97.32542908 226.20439284 93.33386848 227.98532504 89.34375 229.76953125 C85.21551004 231.61287076 81.08036759 233.43978137 76.9375 235.25 C75.92792236 235.69150391 74.91834473 236.13300781 73.87817383 236.58789062 C57.8968925 243.31054416 41.00704786 237.17589816 24.9375 233.25 C22.62898146 232.69109551 20.32038838 232.13249883 18.01171875 231.57421875 C14.46679781 230.71583862 10.92226317 229.85602702 7.37890625 228.99121094 C-2.11774793 226.68452362 -11.64331788 224.53709788 -21.1875 222.4375 C-34.41705682 219.52576651 -47.62159119 216.51962582 -60.8125 213.4375 C-76.57510464 209.75520879 -92.34582791 206.11067258 -108.125 202.5 C-110.18986641 202.02720887 -112.25472651 201.5543902 -114.31958008 201.08154297 C-124.74272557 198.69481409 -124.74272557 198.69481409 -135.16699219 196.31298828 C-147.32873549 193.53646463 -159.46553336 190.67547582 -171.58395386 187.71640015 C-182.39041314 185.07770387 -193.20077961 182.50919608 -204.08032227 180.18554688 C-212.35050809 178.41614594 -220.60539647 176.58281349 -228.8538208 174.71484375 C-230.3826524 174.36937219 -231.9118958 174.02571677 -233.44158936 173.68408203 C-265.96956969 166.41421307 -265.96956969 166.41421307 -271.64819336 159.24926758 C-273.61995361 155.06782884 -273.51149635 151.38989082 -273.49609375 146.8203125 C-273.5013356 145.91175507 -273.50657745 145.00319763 -273.51197815 144.06710815 C-273.51838825 142.14907857 -273.51707447 140.23100961 -273.50854492 138.31298828 C-273.50004809 135.39153306 -273.52878868 132.47204285 -273.56054688 129.55078125 C-273.56215949 127.68229225 -273.5615802 125.81379981 -273.55859375 123.9453125 C-273.56982773 123.07842804 -273.58106171 122.21154358 -273.59263611 121.31838989 C-273.52601 115.4646624 -272.50398407 112.02922895 -269.0625 107.25 C-266.11702234 104.45726502 -262.79106065 103.16977592 -259.04296875 101.67578125 C-258.44562424 101.43549698 -257.84827972 101.19521271 -257.23283386 100.94764709 C-255.92983958 100.42423981 -254.62576027 99.90352744 -253.32073975 99.38519287 C-250.45325587 98.24595819 -247.59133169 97.09303527 -244.72888184 95.94122314 C-243.19766003 95.32527064 -241.66615974 94.71001004 -240.13439941 94.09539795 C-231.55043413 90.64991009 -222.99333727 87.13962318 -214.4375 83.625 C-212.81136845 82.95766335 -211.18522903 82.29034588 -209.55908203 81.62304688 C-197.5614333 76.697512 -185.57507783 71.74480133 -173.59005737 66.78863525 C-155.63023438 59.36173946 -137.65001131 51.98932928 -119.63525391 44.69677734 C-105.62763903 39.02443036 -91.62707338 33.33781807 -77.6875 27.5 C-67.15550255 23.09110977 -56.58196427 18.78717246 -46 14.5 C-45.21917053 14.18357544 -44.43834106 13.86715088 -43.6338501 13.5411377 C-39.16038921 11.72893882 -34.68526667 9.920916 -30.2086792 8.11645508 C-28.05353214 7.2463795 -25.8999987 6.37239502 -23.74658203 5.49804688 C-22.39490719 4.95169816 -21.04318424 4.40546846 -19.69140625 3.859375 C-18.50748291 3.37952148 -17.32355957 2.89966797 -16.10375977 2.40527344 C-10.57841386 0.30637829 -5.86301475 0.03672993 0 0 Z " fill="#496A96" transform="translate(747.0625,277.75)"/>
<path d="M0 0 C1.09046631 0.14824219 2.18093262 0.29648437 3.30444336 0.44921875 C6.32044239 0.88705169 9.31334764 1.39713029 12.3125 1.9375 C13.83133789 2.19176758 13.83133789 2.19176758 15.38085938 2.45117188 C16.34443359 2.62068359 17.30800781 2.79019531 18.30078125 2.96484375 C19.15841064 3.1155835 20.01604004 3.26632324 20.8996582 3.42163086 C23 4 23 4 25 6 C25.28088379 8.12956238 25.28088379 8.12956238 25.32226562 10.79760742 C25.34148071 11.79592087 25.3606958 12.79423431 25.38049316 13.82279968 C25.3932428 15.44772087 25.3932428 15.44772087 25.40625 17.10546875 C25.41765015 18.21803543 25.42905029 19.33060211 25.4407959 20.47688293 C25.45971769 22.83651921 25.47277251 25.19620861 25.48046875 27.5559082 C25.49983091 31.15605969 25.56182726 34.75390313 25.625 38.35351562 C25.63806516 40.64581977 25.64856411 42.93814026 25.65625 45.23046875 C25.6809436 46.30362839 25.70563721 47.37678802 25.7310791 48.48246765 C25.7014029 53.49627723 25.53569092 57.04959303 22.31201172 61.03930664 C19.5980964 63.70245963 16.81603907 65.5383709 13.3515625 67.140625 C12.27729004 67.64754883 11.20301758 68.15447266 10.09619141 68.67675781 C8.95069824 69.19592773 7.80520508 69.71509766 6.625 70.25 C5.40606292 70.81723587 4.18781167 71.38594759 2.97021484 71.95605469 C-0.67728531 73.65789754 -4.33815325 75.32925708 -8 77 C-9.93796304 77.89483119 -11.87549825 78.79058984 -13.8125 79.6875 C-17.62887937 81.44916408 -21.45103539 83.1975106 -25.27734375 84.9375 C-30.37957098 87.25818291 -35.47458582 89.59410537 -40.56640625 91.9375 C-41.70094238 92.45963074 -41.70094238 92.45963074 -42.85839844 92.99230957 C-44.42303567 93.71240016 -45.98767189 94.43249297 -47.55230713 95.15258789 C-71.99651799 106.39921424 -96.47247033 117.57542649 -121.05078125 128.52636719 C-129.41104301 132.25880358 -137.71429091 136.10581116 -146 140 C-146.63639404 140.29902222 -147.27278809 140.59804443 -147.9284668 140.90612793 C-150.52399481 142.12594422 -153.11928829 143.34625844 -155.7144165 144.56692505 C-168.96897048 150.80086497 -182.23924743 156.98367735 -195.62304688 162.93652344 C-198.25902001 164.11588857 -200.88766138 165.31071024 -203.515625 166.5078125 C-204.4324707 166.92434082 -205.34931641 167.34086914 -206.29394531 167.77001953 C-208.04961878 168.56802413 -209.80424302 169.36834269 -211.55761719 170.17138672 C-212.34297852 170.5273291 -213.12833984 170.88327148 -213.9375 171.25 C-214.62714844 171.56453125 -215.31679688 171.8790625 -216.02734375 172.203125 C-227.00535678 176.63780749 -240.19832788 174.01372855 -251.19238281 171.0390625 C-254.74656823 170.07875396 -258.31787071 169.18521719 -261.88671875 168.28125 C-262.63021576 168.09119385 -263.37371277 167.9011377 -264.13973999 167.70532227 C-272.54378759 165.57306824 -281.01769543 163.78930029 -289.5 162 C-301.23463547 159.51078866 -312.91569448 156.87240728 -324.5625 154 C-335.72037691 151.24933019 -346.89977168 148.64911704 -358.125 146.1875 C-372.28007172 143.0825795 -386.39452549 139.82277882 -400.5 136.5 C-416.2343802 132.79484257 -431.9846699 129.18395816 -447.77050781 125.70483398 C-449.2024833 125.38920253 -450.63444964 125.07352959 -452.06640625 124.7578125 C-452.75282196 124.60649368 -453.43923767 124.45517487 -454.14645386 124.29927063 C-461.3655054 122.70432842 -468.56689396 121.03585056 -475.76757812 119.36035156 C-484.16858774 117.41058453 -492.58129611 115.51548416 -500.99682617 113.62963867 C-507.0436289 112.27455664 -513.08824463 110.90982344 -519.13267517 109.54420471 C-523.72287019 108.50850558 -528.31648302 107.49081869 -532.9140625 106.48828125 C-534.75533249 106.07607505 -536.59649288 105.66337867 -538.4375 105.25 C-539.20940674 105.08814209 -539.98131348 104.92628418 -540.77661133 104.75952148 C-546.36878796 103.47904912 -551.25465833 101.23973273 -556 98 C-556.73524902 97.50266357 -557.47049805 97.00532715 -558.22802734 96.49291992 C-561.08451095 92.47424342 -560.59046566 88.31464081 -560.56640625 83.50390625 C-560.57260483 82.4782103 -560.57880341 81.45251434 -560.58518982 80.39573669 C-560.59228929 78.22794544 -560.5891118 76.06009968 -560.57641602 73.89233398 C-560.56256307 70.5775904 -560.59660562 67.26567645 -560.63476562 63.95117188 C-560.63571695 61.84374931 -560.63385729 59.73632321 -560.62890625 57.62890625 C-560.64216446 56.63919327 -560.65542267 55.64948029 -560.66908264 54.629776 C-560.60841598 50.13929769 -560.52982716 47.74291313 -557.87231445 44.01660156 C-554.78339964 41.84792869 -551.9422396 40.44573882 -548.4140625 39.10546875 C-547.79405365 38.86838699 -547.1740448 38.63130524 -546.5352478 38.38703918 C-545.23171601 37.89244948 -543.92562817 37.40454886 -542.6171875 36.9230957 C-540.63037668 36.18948529 -538.65516824 35.42953746 -536.6796875 34.66601562 C-535.40425013 34.18589161 -534.12822583 33.70732333 -532.8515625 33.23046875 C-531.70510254 32.80145264 -530.55864258 32.37243652 -529.37744141 31.93041992 C-522.96467154 30.16382559 -517.16586808 31.18748651 -510.80615234 32.69311523 C-510.01600235 32.87373001 -509.22585236 33.05434479 -508.41175842 33.24043274 C-505.801393 33.83912054 -503.19371047 34.44872116 -500.5859375 35.05859375 C-498.73415852 35.48604309 -496.88223696 35.91287513 -495.03018188 36.33912659 C-491.13036008 37.23829798 -487.23173406 38.14242608 -483.33398438 39.05053711 C-478.45821759 40.18648629 -473.58062764 41.31432098 -468.70220375 42.43879795 C-448.98967244 46.98347899 -429.30397153 51.62429087 -409.65531921 56.43775177 C-398.54196123 59.15915952 -387.41463768 61.78220946 -376.22698975 64.18276978 C-373.7247037 64.71975315 -371.22382878 65.26298112 -368.72314453 65.80737305 C-365.3627177 66.53854245 -362.00191483 67.26792542 -358.640625 67.99511719 C-352.0492854 69.42158591 -345.46101194 70.86160942 -338.875 72.3125 C-337.87065918 72.53059326 -336.86631836 72.74868652 -335.83154297 72.97338867 C-330.40725404 74.1695069 -325.04448377 75.50938278 -319.68359375 76.96484375 C-312.23205645 78.97630458 -304.73603468 80.64767595 -297.1875 82.25 C-283.86518571 85.10919552 -270.59686482 88.16821354 -257.34448242 91.33496094 C-253.56609521 92.23681622 -249.78425714 93.12305579 -246 94 C-245.05092773 94.22220215 -244.10185547 94.4444043 -243.12402344 94.67333984 C-233.9719999 96.68227768 -227.21428895 96.7464677 -218.75 92.5625 C-216.99504309 91.73514356 -215.23980986 90.90837312 -213.484375 90.08203125 C-212.48212891 89.60330566 -211.47988281 89.12458008 -210.44726562 88.63134766 C-206.46382543 86.7462664 -202.46102678 84.90656521 -198.453125 83.07421875 C-197.69253784 82.72636826 -196.93195068 82.37851776 -196.14831543 82.02012634 C-194.57041078 81.29850635 -192.99248895 80.57692389 -191.41455078 79.8553772 C-179.50683072 74.40404342 -167.62230556 68.90296938 -155.75 63.375 C-143.76080756 57.79440843 -131.7275713 52.31435821 -119.68495178 46.85043335 C-118.98969894 46.53498566 -118.29444611 46.21953796 -117.578125 45.89453125 C-116.87840073 45.5770694 -116.17867645 45.25960754 -115.45774841 44.93252563 C-107.36225211 41.25854437 -99.27357278 37.56966978 -91.1875 33.875 C-90.45276459 33.53933014 -89.71802917 33.20366028 -88.96102905 32.8578186 C-80.34994141 28.92230052 -71.74920574 24.96607816 -63.16796875 20.96582031 C-60.90821334 19.91406558 -58.64651957 18.8664645 -56.3828125 17.82324219 C-50.88581753 15.28922283 -45.41015803 12.72356249 -39.97561646 10.05856323 C-37.22502885 8.71636782 -34.46195524 7.40122871 -31.69665527 6.08966064 C-30.38380283 5.45931758 -29.07640029 4.81746036 -27.7755127 4.16278076 C-18.1758208 -0.66037 -10.67322429 -1.65640217 0 0 Z " fill="#354C6C" transform="translate(1036,458)"/>
<path d="M0 0 C0.78152344 0.09246094 1.56304687 0.18492187 2.3671875 0.28027344 C6.70656684 0.7846117 10.09266093 1.44979173 14.15625 3.15234375 C15.12046875 3.55347656 16.0846875 3.95460938 17.078125 4.3671875 C17.94582031 4.71351562 18.81351562 5.05984375 19.70703125 5.41601562 C20.16085937 5.59929688 20.6146875 5.78257812 21.08203125 5.97167969 C21.80925049 6.26917505 22.53633024 6.5669782 23.26318359 6.86523438 C24 8 24 8 24.125 10.375 C24.12839844 10.94894531 24.13179687 11.52289063 24.13525391 12.11425781 C24.14371094 13.09628906 24.15216797 14.07832031 24.16088867 15.08984375 C24.16588623 16.15618164 24.17088379 17.22251953 24.17602539 18.32128906 C24.19189587 20.81685961 24.21030161 23.31241621 24.23046875 25.80810547 C24.24632034 30.32779308 24.24653667 34.84695131 24.24023438 39.36669922 C24.25039551 41.77631687 24.2668558 44.18582655 24.2890625 46.5953064 C24.2966437 47.62155087 24.30422489 48.64779533 24.31201172 49.70483398 C24.29929411 56.81891839 23.82131285 62.27779117 20 68.5 C16.55050754 71.56656728 13.06979461 73.30073668 8.71875 74.84765625 C7.74210937 75.20140625 6.76546875 75.55515625 5.7578125 75.91992188 C4.78117188 76.27324219 3.80453125 76.6265625 2.796875 76.99023438 C1.98105469 77.29566406 1.16523437 77.60109375 0.32421875 77.91601562 C-5.11044629 79.73067728 -9.45612682 80.22050054 -15.15869141 79.68237305 C-15.97015625 79.60486816 -16.78162109 79.52736328 -17.61767578 79.44750977 C-19.06132812 79.31214844 -19.06132812 79.31214844 -20.53515625 79.17382812 C-21.32408203 79.09856445 -22.11300781 79.02330078 -22.92578125 78.94580078 C-23.91929687 78.84780273 -24.9128125 78.74980469 -25.9375 78.6484375 C-26.95847656 78.55652344 -26.95847656 78.55652344 -28 78.4625 C-34.04376396 77.44696627 -40.0621765 76.29093664 -46.04467773 75.02478027 C-48.42068306 74.51871313 -50.79934011 74.02479052 -53.18041992 73.53881836 C-54.20915756 73.32368195 -55.23783968 73.10825428 -56.26647949 72.89254761 C-58.46155853 72.43225458 -60.65788684 71.97758106 -62.85449219 71.52539062 C-63.68017822 71.35406738 -64.50586426 71.18274414 -65.35617065 71.0065918 C-73.13498447 69.39095406 -80.89960693 67.70976024 -88.66430664 66.02587891 C-96.60765652 64.30166506 -104.56232085 62.62876979 -112.5234375 60.99023438 C-114.06666016 60.67234375 -115.60988281 60.35445313 -117.19824219 60.02734375 C-117.99524414 59.8617334 -118.79224609 59.69612305 -119.61401367 59.52563477 C-126.54810339 58.04685306 -133.37697656 56.20728135 -140.1484375 54.03076172 C-149.45645648 51.01316316 -158.77839199 48.09252795 -168.15625 45.27929688 C-179.63929419 41.87254166 -191.0598315 38.32003162 -202.47265625 34.71679688 C-210.32099044 32.28209779 -218.16856704 29.83913765 -226.0234375 27.41796875 C-227.42818359 26.98591797 -228.83292969 26.55386719 -230.28125 26.109375 C-233.04631082 25.28019855 -233.04631082 25.28019855 -234 22 C-233.9375 19.9375 -233.9375 19.9375 -233.625 17.5 C-233.58261719 16.60421875 -233.54023437 15.7084375 -233.49658203 14.78515625 C-233.45601562 13.9178125 -233.41544922 13.05046875 -233.37377930 12.15820312 C-233.29154785 10.30618164 -233.21240234 8.45410156 -233.13085938 6.60205078 C-233.0574707 4.90609131 -232.98033813 3.21018066 -232.8984375 1.51416016 C-232.87277344 0.95376953 -232.84710937 0.39337891 -232.82067871 -0.18505859 C-232.56426055 -5.38605556 -232.56426055 -5.38605556 -228 -8 C-223.19959684 -7.33707974 -218.99911988 -5.56598879 -214.51171875 -3.84765625 C-213.29105469 -3.37806641 -212.07039062 -2.90847656 -210.8125 -2.42480469 C-209.65175781 -1.97427734 -208.49101562 -1.52375 -207.296875 -1.05957031 C-206.31474609 -0.67306641 -205.33261719 -0.2865625 -204.32080078 0.11254883 C-199.01296541 2.21728618 -193.73618424 4.39671149 -188.46533203 6.58862305 C-178.72355411 10.61966953 -168.95626447 14.57780377 -159.16015625 18.48095703 C-155.39119741 20.03139614 -151.63291478 21.60544684 -147.87890625 23.18945312 C-146.31691406 23.84810547 -144.75492188 24.50675781 -143.14648438 25.18554688 C-138.6628555 27.11182949 -134.16837562 29.01290098 -129.66894531 30.90283203 C-120.95568878 34.56401011 -112.26396399 38.27507698 -103.57568359 42.00024414 C-102.85878052 42.30740845 -102.14187744 42.61457275 -101.40283203 42.9309082 C-100.6831311 43.2377243 -99.96343018 43.54454041 -99.22187805 43.86079407 C-90.93416831 47.40912802 -82.70091929 51.02862099 -74.46191406 54.71484375 C-73.66604126 55.06985504 -72.87016846 55.42486633 -72.05044556 55.79032898 C-70.54658549 56.46426296 -69.04277961 57.1383067 -67.53900146 57.81246948 C-54.94295159 63.48251693 -42.29127758 69.03548929 -29.625 74.5625 C-29.0890625 74.79359375 -28.553125 75.0246875 -28.00097656 75.26269531 C-23.35003088 77.31422181 -18.70027877 79.3689817 -14.05224609 81.42749023 C-6.45911865 84.78904866 1.15162795 88.10159195 8.78271484 91.37573242 C17.24100497 95.00155756 25.67137461 98.6903117 34.10009766 102.38330078 C41.71252413 105.71759631 49.33911614 109.02050247 56.97607422 112.30126953 C58.52696289 112.9693457 60.07763672 113.63785156 61.62853050 114.30679321 C64.88768571 115.71232217 68.14542119 117.12098169 71.40234375 118.53222656 C74.19612099 119.74302847 77.00051621 120.92876847 79.81054688 122.10351562 C81.52127959 122.81958093 83.22974609 123.54111328 84.9375 124.265625 C85.6171875 124.55449219 86.296875 124.84335938 86.99609375 125.14121094 C90.35437089 126.60399161 93.54620658 127.9406697 96 131 C96.21679687 132.59695312 96.21679687 132.59695312 96.1875 134.4375 C96.18667969 135.28066406 96.18585937 136.12382812 96.18505859 136.99316406 C96.17699219 138.08023437 96.16892578 139.16730469 96.16064453 140.28710938 C96.15524902 141.50111328 96.14985352 142.71511719 96.14428711 143.96679688 C96.12749481 147.01166413 96.10668927 150.05645109 96.08203125 153.10131836 C96.08004568 156.96971315 96.10165658 160.83680269 96.12988281 164.70507812 C96.11785889 167.38437317 96.10018665 170.0635766 96.07641602 172.74279785 C96.0732373 173.91408966 96.06995422 175.08538147 96.06659698 176.29231262 C96.05239547 181.17282178 95.8315757 183.98888619 93 188 C89.64339217 189.70093826 87.05093587 189.9802728 83.28881836 189.99316406 C82.67478028 189.99820892 82.06074219 190.00325378 81.42871094 190.00844727 C79.9494043 190.00838867 79.9494043 190.00838867 78.44067383 190.00832031 C77.62741821 190.01459045 76.81416260 190.02086060 75.97680664 190.02732849 C73.99315867 190.02713867 72.00950894 190.02129395 70.02587891 190.01171875 C66.53614665 190.00605267 63.04676976 190.03239471 59.55712891 190.06347656 C56.60788093 190.06284866 53.65867553 190.05671196 50.70947266 190.04565430 C49.43055969 190.04716873 48.15164673 190.04868317 46.83319092 190.05024719 C42.04890652 190.00880817 37.29700685 189.42403687 32.5390625 188.8359375 C22.81106115 187.67212099 22.81106115 187.67212099 13.046875 188.04296875 C12.25693359 188.04521484 11.46699219 188.04746094 10.65380859 188.04977539 C8.35408851 188.10040088 6.05551889 188.16929098 3.7578125 188.24316406 C3.00755859 188.25570312 2.25730469 188.26824219 1.48486328 188.28115234 C-1.78476888 188.18429291 -4.77654093 188.02497971 -8 187.5 C-8.55773438 186.52335938 -8.55773438 186.52335938 -9.125 185.52734375 C-9.54984375 184.79898437 -9.9746875 184.070625 -10.4125 183.3203125 C-11.02929494 182.09556318 -11.48912073 180.93899426 -11.86425781 179.62353516 C-12.04298828 178.93032227 -12.22171875 178.23710938 -12.40625 177.52246094 C-12.56195312 176.87412109 -12.71765625 176.22578125 -12.87792969 175.55761719 C-12.99007813 175.05105469 -13.10222656 174.54449219 -13.21777344 174.02246094 C-13.49660156 172.83105469 -13.78019531 171.64082031 -14.0625 170.45019531 C-14.20046875 169.90609375 -14.3384375 169.36199219 -14.48046875 168.80175781 C-15.61412788 164.53694553 -16.7252898 160.26654413 -17.83056641 155.99536133 C-19.28571127 150.37366629 -20.77179371 144.76169655 -22.265625 139.15136719 C-22.46945313 138.38955078 -22.67328125 137.62773438 -22.8828125 136.84277344 C-23.08341797 136.09009766 -23.28402344 135.33742187 -23.49072266 134.56152344 C-23.68939453 133.83046875 -23.88806641 133.09941406 -24.09277344 132.34570312 C-25.23803102 128.3252917 -25.23803102 128.3252917 -27 126 C-30.31621094 125.38574219 -33.6324219 124.77148437 -36.9486084 124.15722656 C-38.45063965 123.8873291 -39.95267578 123.61747559 -41.45471191 123.34765625 C-42.65080566 123.12982422 -43.84689941 122.91199219 -45.08007812 122.6875 C-46.62231567 122.41096008 -48.16441113 122.13358765 -49.70629883 121.85542297 C-56.32497989 120.69286108 -62.92587908 119.45154657 -69.52734375 118.18798828 C-71.20478882 117.86776642 -72.88244124 117.54880306 -74.56030273 117.23107910 C-80.13839765 116.16927892 -85.71009127 115.06787313 -91.27099609 113.91455078 C-98.36653461 112.44406009 -105.49119346 111.12912068 -112.625 109.81640625 C-114.30188964 109.50553955 -115.97870118 109.19410977 -117.65539551 108.88211060 C-123.41867432 107.84424541 -129.19058215 106.85735166 -134.96875 105.89648438 C-136.63862305 105.61862305 -138.30849609 105.34076172 -140.02880859 105.05493164 C-151.54765115 103.14093408 -163.03091259 101.08098178 -174.48461914 98.87646484 C-177.40785296 98.31346541 -180.33442232 97.76789912 -183.26318359 97.23046875 C-184.40291992 97.01838867 -185.54265625 96.80630859 -186.71679688 96.58764648 C-188.65893982 96.2277002 -190.60091879 95.86679063 -192.54272461 95.50492859 C-215.04720085 91.52093477 -237.38891756 86.80844127 -259.6875 82.0625 C-262.19879166 81.53042188 -264.71017046 80.9987815 -267.22155762 80.46719360 C-269.48696411 79.98809814 -271.75254883 79.50989090 -274.01831055 79.03213501 C-281.78376976 77.40098911 -289.55038682 75.77548054 -297.31835938 74.15478516 C-300.51629076 73.48620877 -303.71328199 72.81298377 -306.91015625 72.13867188 C-308.07012695 71.8944043 -309.23009766 71.65013672 -310.42480469 71.39868164 C-311.26560547 71.22107422 -312.10640625 71.04346680 -312.97265625 70.86035156 C-318.39478645 69.63139299 -323.15022656 68.19696893 -327.9375 65.5 C-329.22166137 63.66099159 -330.38476866 61.73846022 -331.5625 59.828125 C-331.89132812 59.26773437 -332.22015625 58.70734375 -332.55859375 58.13085938 C-333.01953125 57.15234375 -333.01953125 57.15234375 -333.48925781 56.15429688 C-333.98316406 55.1128125 -334.47707031 54.07132812 -334.98632812 52.99804688 C-335.35341797 52.20287109 -335.72050781 51.40769531 -336.09912109 50.58837891 C-336.61757812 49.40925781 -337.13603516 48.23013672 -337.66992188 47.01464844 C-338.15285156 45.86259766 -338.63578125 44.71054688 -339.1328125 43.52246094 C-339.38582031 42.91605469 -339.63882812 42.30964844 -339.89941406 41.68554688 C-340.72217295 39.73548093 -341.53825858 37.78296858 -342.34838867 35.82751465 C-343.20671 33.75655688 -344.07016177 31.68793844 -344.9375 29.62109375 C-345.16878906 29.04078125 -345.40007813 28.46046875 -345.63818359 27.86279297 C-347.85831658 22.27844587 -350.0728627 16.69148654 -352.28125 11.10205078 C-352.58851563 10.31363281 -352.89578125 9.52521484 -353.2121582 8.71289062 C-353.51396484 7.92986328 -353.81577148 7.14683594 -354.12695312 6.33935547 C-354.41519531 5.5828125 -354.7034375 4.82626953 -355.00097656 4.04638672 C-357.44063076 -2.37339095 -357.44063076 -2.37339095 -355 -6 C-349.53855006 -5.49259108 -344.67355067 -4.12406802 -339.5 -2.3125 C-338.71287109 -2.02882813 -337.92574219 -1.74515625 -337.11425781 -1.45263672 C-335.24755859 -0.79023437 -333.38085938 -0.12783203 -331.51416016 0.53457031 C-329.74492188 1.16855469 -327.97568359 1.80253906 -326.20644531 2.43652344 C-323.07324219 3.52964844 -319.93988281 4.62226563 -316.80664062 5.71503906 C-314.01035156 6.69064453 -311.21398437 7.66609375 -308.41796875 8.64199219 C-307.54070313 8.94757812 -306.6634375 9.25316406 -305.76015625 9.56777344 C-296.21282605 12.89983866 -286.66591019 16.23323285 -277.11816406 19.56494141 C-272.00287399 21.34962076 -266.89086989 23.1444135 -261.77929688 24.94189453 C-259.31152344 25.81412109 -256.84375 26.68634766 -254.37597656 27.55857422 C-251.09441406 28.71859375 -247.81289063 29.87875 -244.53125 31.03857422 C-235.88316563 33.88866313 -227.25113917 36.79169792 -218.63867188 39.73632812 C-212.11379639 41.97036879 -205.57364936 44.13927012 -199.00854492 46.26953125 C-196.64916992 47.02885742 -194.28979492 47.78818359 -191.93041992 48.54750977 C-186.57124023 50.26538086 -181.21206055 51.98325195 -175.85288086 53.70112305 C-170.77016297 55.33017756 -165.68427024 56.94800067 -160.59375 58.55273438 C-159.39018433 58.93262207 -158.18661865 59.31250977 -156.94674683 59.70385742 C-151.89684685 61.27848497 -146.84694687 62.85311253 -141.79704690 64.42774008 C-140.61318970 64.79563904 -139.42933250 65.16353800 -138.21099854 65.54292297 C-136.70215820 66.01235046 -135.19286987 66.48045178 -133.68310547 66.94726562 C-124.26022549 69.85968056 -114.84093048 72.78406656 -105.42431641 75.71728516 C-96.20612199 78.5885936 -86.97798997 81.42679019 -77.7421875 84.24023438 C-77.13554687 84.42554687 -76.52890625 84.61085938 -75.90429688 84.80175781 C-74.4631543 85.24149414 -73.02201172 85.68122070 -71.58087158 86.12094727 C-58.0419085 90.24813988 -44.48918135 94.32813968 -30.9140625 98.33789062 C-28.0377002 99.18688965 -25.16183472 100.03786377 -22.28613281 100.88964844 C-19.67578125 101.66179687 -19.67578125 101.66179687 -17.01098633 102.44958496 C-14.51879395 103.18756714 -12.02624798 103.92436615 -9.53320312 104.65966797 C-6.26315674 105.62425095 -2.99311035 106.58883392 0.27709961 107.55419922 C8.20011614 109.88768621 16.12182069 112.22534073 24.04296875 114.5625 C26.16046143 115.18695068 28.27787109 115.81161499 30.39526367 116.43632507 C38.48614731 118.82370574 46.57471802 121.21909693 54.66015625 123.62402344 C69.10118814 128.01197587 83.54656419 132.38314676 97.99511719 136.74389648 C102.18757935 137.9990521 106.37839893 139.25911057 110.56860352 140.52008057 C123.6124093 144.45070779 136.60949584 148.55147915 149.59765625 152.66601562 C154.0668526 154.08130493 158.53867798 155.48751831 163.01367188 156.88476562 C164.30558594 157.28730469 165.5975 157.68984375 166.9296875 158.10449219 C168.19054687 158.49947266 169.45140625 158.89445312 170.75 159.30078125 C171.8109375 159.62597656 172.871875 159.95117188 173.96484375 160.28613281 C181.95795808 163.13420687 187.39428553 167.61396571 193.0625 173.8125 C193.69570312 174.49472656 194.32890625 175.17695313 194.98046875 175.87890625 C196.92712219 178.24685817 198.40098001 180.42679612 199.7890625 183.18359375 C200.84609375 185.91015625 200.84609375 185.91015625 201.0625 189.1875 C200.62355469 190.05234375 200.62355469 190.05234375 200.17578125 190.93359375 C199.69480469 191.65839844 199.21382812 192.38320313 198.71875 193.12890625 C196.97363281 195.57519531 196.97363281 195.57519531 196.03125 197.5 C194.39261437 201.21814899 192.78049022 204.94741109 191.171875 208.67773438 C190.23304687 210.68582031 189.29421875 212.69390625 188.35546875 214.70175781 C187.73945312 216.02238281 187.1234375 217.34300781 186.5078125 218.66357422 C185.47703125 220.87085937 184.44632813 223.07814453 183.41552734 225.28530273 C182.39949219 227.43496094 181.38353516 229.58474609 180.36743164 231.73419189 C179.67011719 233.20878906 178.97279297 234.68332031 178.27539062 236.15820312 C177.54042969 237.70710938 176.80546875 239.25601563 176.0703125 240.80480957 C174.42191621 244.2916632 172.77352083 247.77846813 171.125 251.265625 C170.54570312 252.48660156 169.96640625 253.70757812 169.3698730 254.96582031 C168.06694453 257.73158203 166.76408203 260.49716797 165.46113281 263.26306152 C163.65078125 267.10625 163.65078125 267.10625 160.9375 268.6875 C157.51295658 269.30416126 155.02313461 268.97011124 151.5546875 268.51953125 C149.60310955 268.34090164 147.65135895 268.1776685 145.69921875 268.02929688 C144.6899414 267.94628906 143.6806543 267.86328125 142.64038086 267.77783203 C140.50109375 267.59853516 140.50109375 267.59853516 138.32617188 267.41601562 C137.04074219 267.30830078 137.04074219 267.30830078 135.73046875 267.19848633 C130.81988911 266.75379639 125.92132676 266.48989135 121 266.4375 C114.51379571 266.35199195 114.51379571 266.35199195 111.9296875 264.94726562 C108.07989695 260.98095428 108.56591788 256.72618178 108.51171875 251.4609375 C108.50428711 250.55037109 108.49685547 249.63980469 108.48920898 248.70166016 C108.4832666 247.49313965 108.47732422 246.28461914 108.47119141 245.03955078 C108.45414611 242.11315104 108.43268965 239.18683355 108.40673828 236.26049805 C108.37548159 232.04556709 108.36818199 227.83096055 108.36523438 223.61572266 C108.36126099 220.59999496 108.35165696 217.58435478 108.33618164 214.5687561 C108.33416443 213.37665314 108.33225098 212.18455017 108.33039856 210.95646667 C108.32428909 206.15917655 108.46628115 201.50461364 108.8125 196.71875 C109.00847656 194.42832031 109.00847656 194.42832031 109.20800781 192.09375 C109.28648437 191.15664062 109.36496094 190.21953125 109.4453125 189.25390625 C109.52539063 188.28644531 109.60546875 187.31898437 109.6875 186.32226562 C109.77023437 185.3125 109.85296875 184.30273438 109.9375 183.26171875 C110.0170166 182.37042969 110.0965332 181.47914063 110.17822266 180.56103516 C111.45628046 165.8810929 115.81052855 152.35355469 121.91552734 138.88574219 C125.0658178 131.92458069 128.24706498 124.97698814 131.51953125 118.07080078 C135.64867015 109.50040215 139.7127584 100.89744179 143.77734375 92.29541016 C146.89458877 85.70150513 150.02911816 79.11672936 153.19970703 72.55175781 C153.78585938 71.34052734 154.37201172 70.12929688 154.97607422 68.88232422 C155.56398438 67.66371094 156.15189453 66.44509766 156.75756836 65.18994141 C157.35453125 63.94851562 157.95149414 62.70708984 158.56640625 61.42919922 C160.39111328 57.76757812 160.39111328 57.76757812 161 54 C157.64013672 52.89978516 154.28027344 51.79957031 150.92041016 50.69935547 C149.51662109 50.23941406 148.11283203 49.77947266 146.70898438 49.31953125 C145.23503906 48.83751953 143.76109375 48.35550781 142.28710938 47.87353516 C140.63765625 47.33339844 138.9882793 46.79328125 137.33886719 46.25314453 C130.67866602 44.11006241 124.02042017 41.95952667 117.36328125 39.80493164 C110.34379052 37.5281612 103.32182177 35.26129653 96.29614258 32.99978638 C95.22694397 32.65610504 94.15774536 32.31242371 93.05609131 31.95837402 C92.01165466 31.6215744 90.96721802 31.28477478 89.89038086 30.9378662 C88.83477783 30.59808655 87.77917480 30.2583069 86.69088745 29.90814209 C76.07655827 26.48881379 65.47215068 23.03901119 54.86328125 19.60351562 C47.73396606 17.28917316 40.60655989 14.96925631 33.48291016 12.63623047 C25.37888513 10.00025152 17.27117665 7.37474155 9.16015625 4.75976562 C8.28605469 4.47820312 7.41195312 4.19664062 6.51171875 3.90625 C4.63035156 3.29878906 2.74898437 2.69132813 0.86767578 2.08398438 C-0.05308594 1.78757812 -0.97384766 1.49117187 -1.92211914 1.18579102 C-1.27 0.77 -0.61788086 0.35420898 0.04296875 -0.06542969 C0.02878906 -0.04423828 0.0146875 -0.02304687 0 0 Z " fill="#294164" transform="translate(1170,617)"/>
</svg>